<?xml version="1.0" encoding="utf-8"?>
<svg version="1.1" width="32px" height="174px" xmlns:xlink="http://www.w3.org/1999/xlink" xmlns="http://www.w3.org/2000/svg">
  <g transform="translate(-7 -398 )">
    <path d="M 32 24.8263027295285  C 32 26.697270471464  31.8043758043758 28.3163771712159  31.4131274131274 29.6836228287841  L 15.011583011583 87  L 31.4131274131274 144.316377171216  C 31.8043758043758 145.683622828784  32 147.302729528536  32 149.173697270471  C 32 151.044665012407  31.8043758043758 152.663771712159  31.4131274131274 154.031017369727  L 26.2857142857143 171.949131513648  C 25.8944658944659 173.316377171216  25.4311454311454 174  24.8957528957529 174  C 24.3603603603604 174  23.8970398970399 173.316377171216  23.5057915057915 171.949131513648  L 0.586872586872587 91.8573200992556  C 0.195624195624196 90.4900744416873  0 88.8709677419355  0 87  C 0 85.1290322580645  0.195624195624196 83.5099255583126  0.586872586872587 82.1426799007444  L 23.5057915057915 2.05086848635235  C 23.8970398970399 0.683622828784111  24.3603603603604 0  24.8957528957529 0  C 25.4311454311454 0  25.8944658944659 0.683622828784111  26.2857142857143 2.05086848635235  L 31.4131274131274 19.968982630273  C 31.8043758043758 21.3362282878412  32 22.955334987593  32 24.8263027295285  Z " fill-rule="nonzero" fill="#000000" stroke="none" transform="matrix(1 0 0 1 7 398 )" />
  </g>
</svg>