<?xml version="1.0" encoding="utf-8"?>
<svg version="1.1" width="300px" height="253px" xmlns:xlink="http://www.w3.org/1999/xlink" xmlns="http://www.w3.org/2000/svg">
  <g transform="translate(-121 -232 )">
    <path d="M 121 232  L 421 232  L 421 485  L 121 485  L 121 232  " fill-rule="nonzero" fill="#cccccc" stroke="none" />
    <path d="M 139 250  L 403 250  L 403 467  L 139 467  L 139 250  " fill-rule="nonzero" fill="#ffffff" stroke="none" />
    <path d="M 295.975 307.9  C 285.349 307.9  277 299.551  277 288.925  C 277 278.299  285.349 269.95  295.975 269.95  C 306.601 269.95  314.95 278.299  314.95 288.925  C 314.95 299.551  306.601 307.9  295.975 307.9  " fill-rule="nonzero" fill="#cccccc" stroke="none" />
    <path d="M 146 461  L 146 348.8  L 208.75 297.8  L 296.6 357.776  L 346.8 328.4  L 397 357.776  L 397 461  L 146 461  " fill-rule="nonzero" fill="#169bd5" stroke="none" />
  </g>
</svg>