<?xml version="1.0" encoding="utf-8"?>
<svg version="1.1" width="50px" height="43px" xmlns:xlink="http://www.w3.org/1999/xlink" xmlns="http://www.w3.org/2000/svg">
  <g transform="translate(-106 -655 )">
    <path d="M 22.5060096153846 3.68917018284107  C 22.8866185897436 4.07219878105954  23.0769230769231 4.52578527894983  23 5.04992967651195  L 23 37.950070323488  C 23.0769230769231 38.4742147210502  22.8866185897436 38.9278012189405  22.5060096153846 39.3108298171589  C 22.1254006410256 39.6938584153774  21.6746794871795 39.8853727144866  21.1538461538462 39.8853727144866  C 20.6330128205128 39.8853727144866  20.1822916666667 39.6938584153774  19.8016826923077 39.3108298171589  L 9.79567307692308 29.2412095639944  L 1.92307692307692 29.2412095639944  C 1.40224358974359 29.2412095639944  0.951522435897436 29.0496952648851  0.570913461538461 28.6666666666667  C 0.190304487179487 28.2836380684482  0 27.8300515705579  0 27.3059071729958  L 0 15.6940928270042  C 0 15.1699484294421  0.190304487179487 14.7163619315518  0.570913461538461 14.3333333333333  C 0.951522435897436 13.9503047351149  1.40224358974359 13.7587904360056  1.92307692307692 13.7587904360056  L 9.79567307692308 13.7587904360056  L 19.8016826923077 3.68917018284107  C 20.1822916666667 3.3061415846226  20.6330128205128 3.11462728551336  21.1538461538462 3.11462728551336  C 21.6746794871795 3.11462728551336  22.1254006410256 3.3061415846226  22.5060096153846 3.68917018284107  Z M 33.3383413461538 17.2060478199719  C 34.189703525641 18.5365682137834  34.6153846153846 19.9678856071261  34.6153846153846 21.5  C 34.6153846153846 23.0321143928739  34.189703525641 24.45839193624  33.3383413461538 25.7788326300985  C 32.4869791666667 27.0992733239569  31.3601762820513 28.0417252695734  29.9579326923077 28.606188466948  C 29.7576121794872 28.7069854664791  29.5072115384615 28.7573839662447  29.2067307692308 28.7573839662447  C 28.6858974358974 28.7573839662447  28.2351762820513 28.570909517112  27.8545673076923 28.1979606188467  C 27.4739583333333 27.8250117205813  27.2836538461538 27.3663853727145  27.2836538461538 26.8220815752461  C 27.2836538461538 26.3987341772152  27.4038461538462 26.0409048288795  27.6442307692308 25.7485935302391  C 27.8846153846154 25.4562822315987  28.1750801282051 25.2042897327707  28.515625 24.9926160337553  C 28.8561698717949 24.7809423347398  29.1967147435897 24.5491092358181  29.5372596153846 24.2971167369902  C 29.8778044871795 24.0451242381622  30.1682692307692 23.68225503985  30.4086538461538 23.2085091420534  C 30.6490384615385 22.7347632442569  30.7692307692308 22.1652601969058  30.7692307692308 21.5  C 30.7692307692308 20.8347398030942  30.6490384615385 20.2652367557431  30.4086538461538 19.7914908579466  C 30.1682692307692 19.31774496015  29.8778044871795 18.9548757618378  29.5372596153846 18.7028832630098  C 29.1967147435897 18.4508907641819  28.8561698717949 18.2190576652602  28.515625 18.0073839662447  C 28.1750801282051 17.7957102672293  27.8846153846154 17.5437177684013  27.6442307692308 17.2514064697609  C 27.4038461538462 16.9590951711205  27.2836538461538 16.6012658227848  27.2836538461538 16.1779184247539  C 27.2836538461538 15.6336146272855  27.4739583333333 15.1749882794187  27.8545673076923 14.8020393811533  C 28.2351762820513 14.429090482888  28.6858974358974 14.2426160337553  29.2067307692308 14.2426160337553  C 29.5072115384615 14.2426160337553  29.7576121794872 14.2930145335209  29.9579326923077 14.393811533052  C 31.3601762820513 14.9381153305204  32.4869791666667 15.8755274261603  33.3383413461538 17.2060478199719  Z M 39.7536057692308 12.9574542897328  C 41.4563301282051 15.5680965775902  42.3076923076923 18.415611814346  42.3076923076923 21.5  C 42.3076923076923 24.584388185654  41.4563301282051 27.4319034224097  39.7536057692308 30.0425457102672  C 38.0508814102564 32.6531879981247  35.7972756410256 34.5532114392874  32.9927884615385 35.7426160337553  C 32.7323717948718 35.8434130332864  32.4819711538462 35.893811533052  32.2415865384615 35.893811533052  C 31.7007211538462 35.893811533052  31.239983974359 35.7022972339428  30.859375 35.3192686357243  C 30.478766025641 34.9362400375059  30.2884615384615 34.4826535396156  30.2884615384615 33.9585091420534  C 30.2884615384615 33.1722925457103  30.6790865384615 32.5775902484763  31.4603365384615 32.1744022503516  C 32.5821314102564 31.5897796530708  33.3433493589744 31.1462728551336  33.7439903846154 30.8438818565401  C 35.2263621794872 29.7552742616034  36.3832131410256 28.3894749179559  37.2145432692308 26.7464838255977  C 38.0458733974359 25.1034927332396  38.4615384615385 23.3546647913737  38.4615384615385 21.5  C 38.4615384615385 19.6453352086263  38.0458733974359 17.8965072667604  37.2145432692308 16.2535161744022  C 36.3832131410256 14.6105250820441  35.2263621794872 13.2447257383966  33.7439903846154 12.1561181434599  C 33.3433493589744 11.8537271448664  32.5821314102564 11.4102203469292  31.4603365384615 10.8255977496484  C 30.6790865384615 10.4224097515237  30.2884615384615 9.82770745428973  30.2884615384615 9.04149085794655  C 30.2884615384615 8.51734646038443  30.478766025641 8.06375996249414  30.859375 7.68073136427567  C 31.239983974359 7.2977027660572  31.6907051282051 7.10618846694796  32.2115384615385 7.10618846694796  C 32.4719551282051 7.10618846694796  32.7323717948718 7.15658696671354  32.9927884615385 7.25738396624473  C 35.7972756410256 8.44678856071261  38.0508814102564 10.3468120018753  39.7536057692308 12.9574542897328  Z M 46.1838942307692 8.72398030942335  C 48.7279647435897 12.6046647913737  50 16.8633380215659  50 21.5  C 50 26.1366619784341  48.7279647435897 30.3953352086263  46.1838942307692 34.2760196905767  C 43.6398237179487 38.156704172527  40.2544070512821 41.0142991092358  36.0276442307692 42.8488045007032  C 35.7672275641026 42.9496015002344  35.5068108974359 43  35.2463942307692 43  C 34.7255608974359 43  34.2748397435897 42.8084857008908  33.8942307692308 42.4254571026723  C 33.5136217948718 42.0424285044538  33.3233173076923 41.5888420065635  33.3233173076923 41.0646976090014  C 33.3233173076923 40.3389592123769  33.7139423076923 39.744256915143  34.4951923076923 39.2805907172996  C 34.6354166666667 39.1999531176746  34.8607772435897 39.0941162681669  35.1712740384615 38.9630801687764  C 35.4817708333333 38.8320440693858  35.7071314102564 38.7262072198781  35.8473557692308 38.6455696202532  C 36.7688301282051 38.1415846225973  37.5901442307692 37.6275199249883  38.3112980769231 37.1033755274262  C 40.7752403846154 35.2688701359587  42.6983173076923 32.980778246601  44.0805288461538 30.239099859353  C 45.4627403846154 27.497421472105  46.1538461538462 24.584388185654  46.1538461538462 21.5  C 46.1538461538462 18.415611814346  45.4627403846154 15.502578527895  44.0805288461538 12.760900140647  C 42.6983173076923 10.019221753399  40.7752403846154 7.73112986404125  38.3112980769231 5.89662447257384  C 37.5901442307692 5.37248007501172  36.7688301282051 4.85841537740272  35.8473557692308 4.35443037974683  C 35.7071314102564 4.27379278012189  35.4817708333333 4.16795593061415  35.1712740384615 4.03691983122363  C 34.8607772435897 3.90588373183309  34.6354166666667 3.80004688232536  34.4951923076923 3.71940928270042  C 33.7139423076923 3.255743084857  33.3233173076923 2.66104078762306  33.3233173076923 1.9353023909986  C 33.3233173076923 1.41115799343647  33.5136217948718 0.957571495546175  33.8942307692308 0.574542897327707  C 34.2748397435897 0.191514299109234  34.7255608974359 0  35.2463942307692 0  C 35.5068108974359 0  35.7672275641026 0.0503984997655856  36.0276442307692 0.151195499296766  C 40.2544070512821 1.98570089076418  43.6398237179487 4.84329582747304  46.1838942307692 8.72398030942335  Z " fill-rule="nonzero" fill="#000000" stroke="none" transform="matrix(1 0 0 1 106 655 )" />
  </g>
</svg>