<?xml version="1.0" encoding="utf-8"?>
<svg version="1.1" width="35px" height="50px" xmlns:xlink="http://www.w3.org/1999/xlink" xmlns="http://www.w3.org/2000/svg">
  <g transform="translate(-254 -651 )">
    <path d="M 34.4227430555556 19.8016826923077  C 34.8075810185185 20.1822916666667  35 20.6330128205128  35 21.1538461538462  L 35 25  C 35 29.4270833333333  33.5062210648148 33.2782451923077  30.5186631944444 36.5534855769231  C 27.5311053240741 39.8287259615385  23.8396990740741 41.7067307692308  19.4444444444444 42.1875  L 19.4444444444444 46.1538461538462  L 27.2222222222222 46.1538461538462  C 27.7488425925926 46.1538461538462  28.2045717592593 46.3441506410256  28.5894097222222 46.7247596153846  C 28.9742476851852 47.1053685897436  29.1666666666667 47.5560897435897  29.1666666666667 48.0769230769231  C 29.1666666666667 48.5977564102564  28.9742476851852 49.0484775641026  28.5894097222222 49.4290865384615  C 28.2045717592593 49.8096955128205  27.7488425925926 50  27.2222222222222 50  L 7.77777777777778 50  C 7.25115740740741 50  6.79542824074074 49.8096955128205  6.41059027777778 49.4290865384615  C 6.02575231481481 49.0484775641026  5.83333333333333 48.5977564102564  5.83333333333333 48.0769230769231  C 5.83333333333333 47.5560897435897  6.02575231481481 47.1053685897436  6.41059027777778 46.7247596153846  C 6.79542824074074 46.3441506410256  7.25115740740741 46.1538461538462  7.77777777777778 46.1538461538462  L 15.5555555555556 46.1538461538462  L 15.5555555555556 42.1875  C 11.1603009259259 41.7067307692308  7.46889467592593 39.8287259615385  4.48133680555556 36.5534855769231  C 1.49377893518519 33.2782451923077  0 29.4270833333333  0 25  L 0 21.1538461538462  C 0 20.6330128205128  0.192418981481481 20.1822916666667  0.577256944444444 19.8016826923077  C 0.962094907407407 19.4210737179487  1.41782407407407 19.2307692307692  1.94444444444444 19.2307692307692  C 2.47106481481481 19.2307692307692  2.92679398148148 19.4210737179487  3.31163194444444 19.8016826923077  C 3.69646990740741 20.1822916666667  3.88888888888889 20.6330128205128  3.88888888888889 21.1538461538462  L 3.88888888888889 25  C 3.88888888888889 28.7059294871795  5.22063078703704 31.8760016025641  7.88411458333333 34.5102163461538  C 10.5475983796296 37.1444310897436  13.7528935185185 38.4615384615385  17.5 38.4615384615385  C 21.2471064814815 38.4615384615385  24.4524016203704 37.1444310897436  27.1158854166667 34.5102163461538  C 29.779369212963 31.8760016025641  31.1111111111111 28.7059294871795  31.1111111111111 25  L 31.1111111111111 21.1538461538462  C 31.1111111111111 20.6330128205128  31.3035300925926 20.1822916666667  31.6883680555556 19.8016826923077  C 32.0732060185185 19.4210737179487  32.5289351851852 19.2307692307692  33.0555555555556 19.2307692307692  C 33.5821759259259 19.2307692307692  34.0379050925926 19.4210737179487  34.4227430555556 19.8016826923077  Z M 24.3663194444444 2.82451923076923  C 26.2702546296296 4.70753205128205  27.2222222222222 6.97115384615384  27 9.61538461538462  L 27 25  C 27.2222222222222 27.6442307692308  26.2702546296296 29.9078525641026  24.3663194444444 31.7908653846154  C 22.4623842592593 33.6738782051282  20.1736111111111 34.6153846153846  17.5 34.6153846153846  C 14.8263888888889 34.6153846153846  12.5376157407407 33.6738782051282  10.6336805555556 31.7908653846154  C 8.72974537037037 29.9078525641026  7.77777777777778 27.6442307692308  8 25  L 8 9.61538461538462  C 7.77777777777778 6.97115384615384  8.72974537037037 4.70753205128205  10.6336805555556 2.82451923076923  C 12.5376157407407 0.941506410256415  14.8263888888889 0  17.5 0  C 20.1736111111111 0  22.4623842592593 0.941506410256415  24.3663194444444 2.82451923076923  Z " fill-rule="nonzero" fill="#000000" stroke="none" transform="matrix(1 0 0 1 254 651 )" />
  </g>
</svg>