<?xml version="1.0" encoding="utf-8"?>
<svg version="1.1" width="150px" height="144px" xmlns:xlink="http://www.w3.org/1999/xlink" xmlns="http://www.w3.org/2000/svg">
  <g transform="translate(-18 -236 )">
    <path d="M 18 236  L 168 236  L 168 380  L 18 380  L 18 236  " fill-rule="nonzero" fill="#cccccc" stroke="none" />
    <path d="M 28 246  L 158 246  L 158 370  L 28 370  L 28 246  " fill-rule="nonzero" fill="#ffffff" stroke="none" />
    <path d="M 106.8 279.2  C 100.752 279.2  96 274.448  96 268.4  C 96 262.352  100.752 257.6  106.8 257.6  C 112.848 257.6  117.6 262.352  117.6 268.4  C 117.6 274.448  112.848 279.2  106.8 279.2  " fill-rule="nonzero" fill="#cccccc" stroke="none" />
    <path d="M 32 367  L 32 302.65  L 62.75 273.4  L 105.8 299.608  L 130.4 290.95  L 155 299.608  L 155 367  L 32 367  " fill-rule="nonzero" fill="#169bd5" stroke="none" />
  </g>
</svg>