<?xml version="1.0" encoding="utf-8"?>
<svg version="1.1" width="41px" height="50px" xmlns:xlink="http://www.w3.org/1999/xlink" xmlns="http://www.w3.org/2000/svg">
  <g transform="translate(-433 -274 )">
    <path d="M 11.3888888888889 15.9090909090909  L 11.3888888888889 23  L 29.6111111111111 23  L 29.6111111111111 15.9090909090909  C 29.6111111111111 13.3996212121212  28.7213541666667 11.2571022727273  26.9418402777778 9.48153409090909  C 25.1623263888889 7.70596590909091  23.0150462962963 6.81818181818182  20.5 6.81818181818182  C 17.9849537037037 6.81818181818182  15.8376736111111 7.70596590909091  14.0581597222222 9.48153409090909  C 12.2786458333333 11.2571022727273  11.3888888888889 13.3996212121212  11.3888888888889 15.9090909090909  Z M 40.0034722222222 23.7215909090909  C 40.6678240740741 24.3844696969697  41 25.1893939393939  41 26.1363636363636  L 41 46.5909090909091  C 41 47.5378787878788  40.6678240740741 48.342803030303  40.0034722222222 49.0056818181818  C 39.3391203703704 49.6685606060606  38.5324074074074 50  37.5833333333333 50  L 3.41666666666667 50  C 2.46759259259259 50  1.66087962962963 49.6685606060606  0.996527777777778 49.0056818181818  C 0.332175925925926 48.342803030303  0 47.5378787878788  0 46.5909090909091  L 0 26.1363636363636  C 0 25.1893939393939  0.332175925925926 24.3844696969697  0.996527777777778 23.7215909090909  C 1.66087962962963 23.0587121212121  2.46759259259259 22.7272727272727  3.41666666666667 22.7272727272727  L 4.55555555555556 22.7272727272727  L 4.55555555555556 15.9090909090909  C 4.55555555555556 11.5530303030303  6.12152777777778 7.8125  9.25347222222222 4.6875  C 12.3854166666667 1.5625  16.1342592592593 0  20.5 0  C 24.8657407407407 0  28.6145833333333 1.5625  31.7465277777778 4.6875  C 34.8784722222222 7.8125  36.4444444444444 11.5530303030303  36.4444444444444 15.9090909090909  L 36.4444444444444 22.7272727272727  L 37.5833333333333 22.7272727272727  C 38.5324074074074 22.7272727272727  39.3391203703704 23.0587121212121  40.0034722222222 23.7215909090909  Z " fill-rule="nonzero" fill="#555555" stroke="none" transform="matrix(1 0 0 1 433 274 )" />
  </g>
</svg>