<?xml version="1.0" encoding="utf-8"?>
<svg version="1.1" width="15px" height="22px" xmlns:xlink="http://www.w3.org/1999/xlink" xmlns="http://www.w3.org/2000/svg">
  <g transform="translate(-18 -46 )">
    <path d="M 14.7422680412371 1.32264529058116  C 14.914089347079 1.46960587842351  15 1.63861055444221  15 1.82965931863728  C 15 2.02070808283233  14.914089347079 2.18971275885103  14.7422680412371 2.33667334669339  L 4.61340206185567 11  L 14.7422680412371 19.6633266533066  C 14.914089347079 19.810287241149  15 19.9792919171677  15 20.1703406813627  C 15 20.3613894455578  14.914089347079 20.5303941215765  14.7422680412371 20.6773547094188  L 13.4536082474227 21.7795591182365  C 13.2817869415808 21.9265197060788  13.0841924398625 22  12.860824742268 22  C 12.6374570446735 22  12.4398625429553 21.9265197060788  12.2680412371134 21.7795591182365  L 0.257731958762887 11.5070140280561  C 0.0859106529209623 11.3600534402138  0 11.1910487641951  0 11  C 0 10.8089512358049  0.0859106529209623 10.6399465597862  0.257731958762887 10.4929859719439  L 12.2680412371134 0.220440881763527  C 12.4398625429553 0.0734802939211749  12.6374570446735 0  12.860824742268 0  C 13.0841924398625 0  13.2817869415808 0.0734802939211749  13.4536082474227 0.220440881763527  L 14.7422680412371 1.32264529058116  Z " fill-rule="nonzero" fill="#ffffff" stroke="none" transform="matrix(1 0 0 1 18 46 )" />
  </g>
</svg>