<?xml version="1.0" encoding="utf-8"?>
<svg version="1.1" width="34px" height="29px" xmlns:xlink="http://www.w3.org/1999/xlink" xmlns="http://www.w3.org/2000/svg">
  <g transform="translate(-440 -503 )">
    <path d="M 33.3858064516129 4.003367003367  C 33.7952688172043 4.45903479236812  34 5.01234567901235  34 5.66329966329966  C 34 6.31425364758698  33.7952688172043 6.8675645342312  33.3858064516129 7.32323232323232  L 17.5045161290323 24.996632996633  L 14.5212903225806 28.3164983164983  C 14.1118279569892 28.7721661054994  13.614623655914 29  13.0296774193548 29  C 12.4447311827957 29  11.9475268817204 28.7721661054994  11.538064516129 28.3164983164983  L 8.55483870967742 24.996632996633  L 0.614193548387097 16.1599326599327  C 0.204731182795699 15.7042648709315  0 15.1509539842873  0 14.5  C 0 13.8490460157127  0.204731182795699 13.2957351290685  0.614193548387097 12.8400673400673  L 3.59741935483871 9.52020202020202  C 4.00688172043011 9.0645342312009  4.50408602150538 8.83670033670033  5.08903225806452 8.83670033670034  C 5.67397849462366 8.83670033670033  6.17118279569893 9.0645342312009  6.58064516129032 9.52020202020202  L 13.0296774193548 16.7213804713805  L 27.4193548387097 0.683501683501684  C 27.8288172043011 0.22783389450056  28.3260215053764 0  28.9109677419355 0  C 29.4959139784946 0  29.9931182795699 0.22783389450056  30.4025806451613 0.683501683501684  L 33.3858064516129 4.003367003367  Z " fill-rule="nonzero" fill="#ffffff" stroke="none" transform="matrix(1 0 0 1 440 503 )" />
  </g>
</svg>