<?xml version="1.0" encoding="utf-8"?>
<svg version="1.1" width="20px" height="32px" xmlns:xlink="http://www.w3.org/1999/xlink" xmlns="http://www.w3.org/2000/svg">
  <g transform="translate(-19 -42 )">
    <path d="M 19.6563573883161 1.92384769539078  C 19.8854524627721 2.1376085504342  20 2.38343353373413  20 2.66132264529058  C 20 2.93921175684703  19.8854524627721 3.18503674014696  19.6563573883161 3.39879759519038  L 6.15120274914089 16  L 19.6563573883161 28.6012024048096  C 19.8854524627721 28.814963259853  20 29.060788243153  20 29.3386773547094  C 20 29.6165664662659  19.8854524627721 29.8623914495658  19.6563573883161 30.0761523046092  L 17.9381443298969 31.6793587174349  C 17.709049255441 31.8931195724783  17.4455899198167 32  17.1477663230241 32  C 16.8499427262314 32  16.5864833906071 31.8931195724783  16.3573883161512 31.6793587174349  L 0.343642611683849 16.7374749498998  C 0.11454753722795 16.5237140948564  0 16.2778891115564  0 16  C 0 15.7221108884436  0.11454753722795 15.4762859051436  0.343642611683849 15.2625250501002  L 16.3573883161512 0.320641282565131  C 16.5864833906071 0.106880427521709  16.8499427262314 0  17.1477663230241 0  C 17.4455899198167 0  17.709049255441 0.106880427521709  17.9381443298969 0.320641282565131  L 19.6563573883161 1.92384769539078  Z " fill-rule="nonzero" fill="#ffffff" stroke="none" transform="matrix(1 0 0 1 19 42 )" />
  </g>
</svg>