<?xml version="1.0" encoding="utf-8"?>
<svg version="1.1" width="34px" height="22px" xmlns:xlink="http://www.w3.org/1999/xlink" xmlns="http://www.w3.org/2000/svg">
  <g transform="translate(-438 -372 )">
    <path d="M 33.3858064516129 3.03703703703704  C 33.7952688172043 3.38271604938272  34 3.80246913580247  34 4.2962962962963  C 34 4.79012345679012  33.7952688172043 5.20987654320987  33.3858064516129 5.55555555555555  L 17.5045161290323 18.962962962963  L 14.5212903225806 21.4814814814815  C 14.1118279569892 21.8271604938272  13.614623655914 22  13.0296774193548 22  C 12.4447311827957 22  11.9475268817204 21.8271604938272  11.538064516129 21.4814814814815  L 8.55483870967742 18.962962962963  L 0.614193548387097 12.2592592592593  C 0.204731182795699 11.9135802469136  0 11.4938271604938  0 11  C 0 10.5061728395062  0.204731182795699 10.0864197530864  0.614193548387097 9.74074074074074  L 3.59741935483871 7.22222222222222  C 4.00688172043011 6.87654320987654  4.50408602150538 6.7037037037037  5.08903225806452 6.7037037037037  C 5.67397849462366 6.7037037037037  6.17118279569893 6.87654320987654  6.58064516129032 7.22222222222222  L 13.0296774193548 12.6851851851852  L 27.4193548387097 0.518518518518519  C 27.8288172043011 0.172839506172839  28.3260215053764 0  28.9109677419355 0  C 29.4959139784946 0  29.9931182795699 0.172839506172839  30.4025806451613 0.518518518518519  L 33.3858064516129 3.03703703703704  Z " fill-rule="nonzero" fill="#ffffff" stroke="none" transform="matrix(1 0 0 1 438 372 )" />
  </g>
</svg>