<?xml version="1.0" encoding="utf-8"?>
<svg version="1.1" width="106px" height="34px" xmlns:xlink="http://www.w3.org/1999/xlink" xmlns="http://www.w3.org/2000/svg">
  <g transform="translate(-1082 -978 )">
    <path d="M 1082 978  L 1188 978  L 1188 1012  L 1082 1012  L 1082 978  " fill-rule="nonzero" fill="#cccccc" stroke="none" />
    <path d="M 1084 980  L 1186 980  L 1186 1010  L 1084 1010  L 1084 980  " fill-rule="nonzero" fill="#ffffff" stroke="none" />
    <path d="M 1139.67 988.2  C 1138.242 988.2  1137.12 987.078  1137.12 985.65  C 1137.12 984.222  1138.242 983.1  1139.67 983.1  C 1141.098 983.1  1142.22 984.222  1142.22 985.65  C 1142.22 987.078  1141.098 988.2  1139.67 988.2  " fill-rule="nonzero" fill="#cccccc" stroke="none" />
    <path d="M 1085 1009  L 1085 993.6  L 1110 986.6  L 1145 1003.61132075472  L 1165 990.8  L 1185 1003.61132075472  L 1185 1009  L 1085 1009  " fill-rule="nonzero" fill="#169bd5" stroke="none" />
  </g>
</svg>