<?xml version="1.0" encoding="utf-8"?>
<svg version="1.1" width="113px" height="80px" xmlns:xlink="http://www.w3.org/1999/xlink" xmlns="http://www.w3.org/2000/svg">
  <g transform="translate(-10 -12 )">
    <path d="M 10 12  L 123 12  L 123 92  L 10 92  L 10 12  " fill-rule="nonzero" fill="#cccccc" stroke="none" />
    <path d="M 16 18  L 117 18  L 117 86  L 16 86  L 16 18  " fill-rule="nonzero" fill="#ffffff" stroke="none" />
    <path d="M 74.76 36  C 71.4 36  68.76 33.36  68.76 30  C 68.76 26.64  71.4 24  74.76 24  C 78.12 24  80.76 26.64  80.76 30  C 80.76 33.36  78.12 36  74.76 36  " fill-rule="nonzero" fill="#cccccc" stroke="none" />
    <path d="M 18 84  L 18 48.8  L 42.25 32.8  L 76.2 56.8141592920354  L 95.6 42.4  L 115 56.8141592920354  L 115 84  L 18 84  " fill-rule="nonzero" fill="#169bd5" stroke="none" />
  </g>
</svg>