<?xml version="1.0" encoding="utf-8"?>
<svg version="1.1" width="117px" height="83px" xmlns:xlink="http://www.w3.org/1999/xlink" xmlns="http://www.w3.org/2000/svg">
  <g transform="translate(-18 -127 )">
    <path d="M 18 127  L 135 127  L 135 210  L 18 210  L 18 127  " fill-rule="nonzero" fill="#cccccc" stroke="none" />
    <path d="M 24 133  L 129 133  L 129 204  L 24 204  L 24 133  " fill-rule="nonzero" fill="#ffffff" stroke="none" />
    <path d="M 85.065 151.9  C 81.579 151.9  78.84 149.161  78.84 145.675  C 78.84 142.189  81.579 139.45  85.065 139.45  C 88.551 139.45  91.29 142.189  91.29 145.675  C 91.29 149.161  88.551 151.9  85.065 151.9  " fill-rule="nonzero" fill="#cccccc" stroke="none" />
    <path d="M 26 202  L 26 165.15  L 51.25 148.4  L 86.6 173.482051282051  L 106.8 158.45  L 127 173.482051282051  L 127 202  L 26 202  " fill-rule="nonzero" fill="#169bd5" stroke="none" />
  </g>
</svg>