<?xml version="1.0" encoding="utf-8"?>
<svg version="1.1" width="100px" height="105px" xmlns:xlink="http://www.w3.org/1999/xlink" xmlns="http://www.w3.org/2000/svg">
  <g transform="translate(-56 -142 )">
    <path d="M 18.1818181818182 76.3636363636364  L 27.2727272727273 76.3636363636364  L 27.2727272727273 85.9090909090909  L 18.1818181818182 85.9090909090909  L 18.1818181818182 76.3636363636364  Z M 18.1818181818182 19.0909090909091  L 27.2727272727273 19.0909090909091  L 27.2727272727273 28.6363636363636  L 18.1818181818182 28.6363636363636  L 18.1818181818182 19.0909090909091  Z M 72.7272727272727 19.0909090909091  L 81.8181818181818 19.0909090909091  L 81.8181818181818 28.6363636363636  L 72.7272727272727 28.6363636363636  L 72.7272727272727 19.0909090909091  Z M 9 66  L 9 95  L 37 95  L 37 66  L 9 66  Z M 9 10  L 9 39  L 37 39  L 37 10  L 9 10  Z M 63 10  L 63 39  L 91 39  L 91 10  L 63 10  Z M 0 57  L 46 57  L 46 105  L 0 105  L 0 57  Z M 72.7272727272727 95.4545454545455  L 81.8181818181818 95.4545454545455  L 81.8181818181818 105  L 72.7272727272727 105  L 72.7272727272727 95.4545454545455  Z M 90.9090909090909 95.4545454545455  L 100 95.4545454545455  L 100 105  L 90.9090909090909 105  L 90.9090909090909 95.4545454545455  Z M 90.9090909090909 57.2727272727273  L 100 57.2727272727273  L 100 86  L 72.7272727272727 86  L 72.7272727272727 76.3636363636364  L 63 76.3636363636364  L 63 105  L 54 105  L 54 57  L 81.8181818181818 57  L 81.8181818181818 66.8181818181818  L 90.9090909090909 66.8181818181818  L 90.9090909090909 57.2727272727273  Z M 0 0  L 46 0  L 46 48  L 0 48  L 0 0  Z M 54 0  L 100 0  L 100 48  L 54 48  L 54 0  Z " fill-rule="nonzero" fill="#000000" stroke="none" transform="matrix(1 0 0 1 56 142 )" />
  </g>
</svg>