<?xml version="1.0" encoding="utf-8"?>
<svg version="1.1" width="19px" height="29px" xmlns:xlink="http://www.w3.org/1999/xlink" xmlns="http://www.w3.org/2000/svg">
  <g transform="translate(-628 -400 )">
    <path d="M 12.8583984375 13.083984375  C 13.7861328125 12.1399739583333  14.25 11.0008680555556  14.25 9.66666666666667  C 14.25 8.33246527777778  13.7861328125 7.193359375  12.8583984375 6.24934895833333  C 11.9306640625 5.30533854166667  10.8111979166667 4.83333333333333  9.5 4.83333333333333  C 8.18880208333333 4.83333333333333  7.0693359375 5.30533854166667  6.1416015625 6.24934895833333  C 5.2138671875 7.193359375  4.75 8.33246527777778  4.75 9.66666666666667  C 4.75 11.0008680555556  5.2138671875 12.1399739583333  6.1416015625 13.083984375  C 7.0693359375 14.0279947916667  8.18880208333333 14.5  9.5 14.5  C 10.8111979166667 14.5  11.9306640625 14.0279947916667  12.8583984375 13.083984375  Z M 16.216796875 2.83203125  C 18.072265625 4.72005208333333  19 6.99826388888888  19 9.66666666666667  C 19 11.0386284722222  18.7958984375 12.1651475694444  18.3876953125 13.0462239583333  L 11.6337890625 27.6595052083333  C 11.4358723958333 28.0748697916667  11.14208984375 28.4021267361111  10.75244140625 28.6412760416667  C 10.36279296875 28.8804253472222  9.9453125 29  9.5 29  C 9.0546875 29  8.63720703125 28.8804253472222  8.24755859375 28.6412760416667  C 7.85791015625 28.4021267361111  7.5703125 28.0748697916667  7.384765625 27.6595052083333  L 0.6123046875 13.0462239583333  C 0.2041015625 12.1651475694444  0 11.0386284722222  0 9.66666666666667  C 0 6.99826388888888  0.927734375 4.72005208333333  2.783203125 2.83203125  C 4.638671875 0.944010416666668  6.87760416666667 0  9.5 0  C 12.1223958333333 0  14.361328125 0.944010416666668  16.216796875 2.83203125  Z " fill-rule="nonzero" fill="#54beb9" stroke="none" transform="matrix(1 0 0 1 628 400 )" />
  </g>
</svg>