<?xml version="1.0" encoding="utf-8"?>
<svg version="1.1" width="109px" height="105px" xmlns:xlink="http://www.w3.org/1999/xlink" xmlns="http://www.w3.org/2000/svg">
  <g transform="translate(-199 -257 )">
    <path d="M 19.8181818181818 76.3636363636364  L 29.7272727272727 76.3636363636364  L 29.7272727272727 85.9090909090909  L 19.8181818181818 85.9090909090909  L 19.8181818181818 76.3636363636364  Z M 19.8181818181818 19.0909090909091  L 29.7272727272727 19.0909090909091  L 29.7272727272727 28.6363636363636  L 19.8181818181818 28.6363636363636  L 19.8181818181818 19.0909090909091  Z M 79.2727272727273 19.0909090909091  L 89.1818181818182 19.0909090909091  L 89.1818181818182 28.6363636363636  L 79.2727272727273 28.6363636363636  L 79.2727272727273 19.0909090909091  Z M 10 66  L 10 95  L 40 95  L 40 66  L 10 66  Z M 10 10  L 10 39  L 40 39  L 40 10  L 10 10  Z M 69 10  L 69 39  L 99 39  L 99 10  L 69 10  Z M 0 57  L 50 57  L 50 105  L 0 105  L 0 57  Z M 79.2727272727273 95.4545454545455  L 89.1818181818182 95.4545454545455  L 89.1818181818182 105  L 79.2727272727273 105  L 79.2727272727273 95.4545454545455  Z M 99.0909090909091 95.4545454545455  L 109 95.4545454545455  L 109 105  L 99.0909090909091 105  L 99.0909090909091 95.4545454545455  Z M 99.0909090909091 57.2727272727273  L 109 57.2727272727273  L 109 86  L 79.2727272727273 86  L 79.2727272727273 76.3636363636364  L 69 76.3636363636364  L 69 105  L 59 105  L 59 57  L 89.1818181818182 57  L 89.1818181818182 66.8181818181818  L 99.0909090909091 66.8181818181818  L 99.0909090909091 57.2727272727273  Z M 0 0  L 50 0  L 50 48  L 0 48  L 0 0  Z M 59 0  L 109 0  L 109 48  L 59 48  L 59 0  Z " fill-rule="nonzero" fill="#000000" stroke="none" transform="matrix(1 0 0 1 199 257 )" />
  </g>
</svg>