<?xml version="1.0" encoding="utf-8"?>
<svg version="1.1" width="17px" height="27px" xmlns:xlink="http://www.w3.org/1999/xlink" xmlns="http://www.w3.org/2000/svg">
  <g transform="translate(-56 -221 )">
    <path d="M 16.7079037800687 1.62324649298597  C 16.9026345933562 1.80360721442885  17 2.01102204408817  17 2.24549098196393  C 17 2.47995991983968  16.9026345933562 2.687374749499  16.7079037800687 2.86773547094188  L 5.22852233676976 13.5  L 16.7079037800687 24.1322645290581  C 16.9026345933562 24.312625250501  17 24.5200400801603  17 24.7545090180361  C 17 24.9889779559118  16.9026345933562 25.1963927855711  16.7079037800687 25.376753507014  L 15.2474226804124 26.7294589178357  C 15.0526918671249 26.9098196392786  14.8287514318442 27  14.5756013745704 27  C 14.3224513172967 27  14.098510882016 26.9098196392786  13.9037800687285 26.7294589178357  L 0.292096219931271 14.122244488978  C 0.0973654066437572 13.9418837675351  0 13.7344689378758  0 13.5  C 0 13.2655310621242  0.0973654066437572 13.0581162324649  0.292096219931271 12.877755511022  L 13.9037800687285 0.270541082164329  C 14.098510882016 0.090180360721442  14.3224513172967 0  14.5756013745704 0  C 14.8287514318442 0  15.0526918671249 0.090180360721442  15.2474226804124 0.270541082164329  L 16.7079037800687 1.62324649298597  Z " fill-rule="nonzero" fill="#ffffff" stroke="none" transform="matrix(1 0 0 1 56 221 )" />
  </g>
</svg>