<?xml version="1.0" encoding="utf-8"?>
<svg version="1.1" width="150px" height="187px" xmlns:xlink="http://www.w3.org/1999/xlink" xmlns="http://www.w3.org/2000/svg">
  <g transform="translate(-19 -17 )">
    <path d="M 19 17  L 169 17  L 169 204  L 19 204  L 19 17  " fill-rule="nonzero" fill="#cccccc" stroke="none" />
    <path d="M 30 28  L 158 28  L 158 193  L 30 193  L 30 28  " fill-rule="nonzero" fill="#ffffff" stroke="none" />
    <path d="M 108.25 67.55  C 101.95 67.55  97 62.6  97 56.3  C 97 50  101.95 45.05  108.25 45.05  C 114.55 45.05  119.5 50  119.5 56.3  C 119.5 62.6  114.55 67.55  108.25 67.55  " fill-rule="nonzero" fill="#cccccc" stroke="none" />
    <path d="M 34 189  L 34 102.65  L 64 63.4  L 106 94.8  L 130 86.95  L 154 94.8  L 154 189  L 34 189  " fill-rule="nonzero" fill="#169bd5" stroke="none" />
  </g>
</svg>