<?xml version="1.0" encoding="utf-8"?>
<svg version="1.1" width="150px" height="187px" xmlns:xlink="http://www.w3.org/1999/xlink" xmlns="http://www.w3.org/2000/svg">
  <g transform="translate(-19 -97 )">
    <path d="M 19 97  L 169 97  L 169 284  L 19 284  L 19 97  " fill-rule="nonzero" fill="#cccccc" stroke="none" />
    <path d="M 30 108  L 158 108  L 158 273  L 30 273  L 30 108  " fill-rule="nonzero" fill="#ffffff" stroke="none" />
    <path d="M 108.25 147.55  C 101.95 147.55  97 142.6  97 136.3  C 97 130  101.95 125.05  108.25 125.05  C 114.55 125.05  119.5 130  119.5 136.3  C 119.5 142.6  114.55 147.55  108.25 147.55  " fill-rule="nonzero" fill="#cccccc" stroke="none" />
    <path d="M 34 269  L 34 182.65  L 64 143.4  L 106 174.8  L 130 166.95  L 154 174.8  L 154 269  L 34 269  " fill-rule="nonzero" fill="#169bd5" stroke="none" />
  </g>
</svg>