<?xml version="1.0" encoding="utf-8"?>
<svg version="1.1" width="95px" height="95px" xmlns:xlink="http://www.w3.org/1999/xlink" xmlns="http://www.w3.org/2000/svg">
  <g transform="translate(-200 -691 )">
    <path d="M 51 42.7614182692308  L 51 85.6941105769231  L 87 65.7692307692308  L 87 29.4591346153846  L 51 42.7614182692308  Z M 7.65024038461539 21.8088942307692  L 47.5 36.3100961538462  L 87.3497596153846 21.8088942307692  L 47.5 7.3076923076923  L 7.65024038461539 21.8088942307692  Z M 93.6868990384615 17.7554086538462  C 94.5622996794872 19.0114182692308  95 20.400641025641  95 21.9230769230769  L 95 65.7692307692308  C 95 67.1013621794872  94.6574519230769 68.3383413461539  93.9723557692308 69.4801682692308  C 93.2872596153846 70.6219951923077  92.3547676282051 71.5164262820513  91.1748798076923 72.1634615384615  L 50.9825721153846 94.0865384615385  C 49.9168669871795 94.6955128205128  48.7560096153846 95  47.5 95  C 46.2439903846154 95  45.0831330128205 94.6955128205128  44.0174278846154 94.0865384615385  L 3.82512019230769 72.1634615384615  C 2.64523237179487 71.5164262820513  1.71274038461538 70.6219951923077  1.02764423076923 69.4801682692308  C 0.342548076923077 68.3383413461539  0 67.1013621794872  0 65.7692307692308  L 0 21.9230769230769  C 0 20.400641025641  0.43770032051282 19.0114182692308  1.31310096153846 17.7554086538462  C 2.1885016025641 16.4993990384615  3.34935897435897 15.6049679487179  4.79567307692308 15.0721153846154  L 44.9879807692308 0.456730769230768  C 45.8253205128205 0.152243589743579  46.6626602564103 0  47.5 0  C 48.3373397435898 0  49.1746794871795 0.152243589743579  50.0120192307692 0.456730769230768  L 90.2043269230769 15.0721153846154  C 91.650641025641 15.6049679487179  92.8114983974359 16.4993990384615  93.6868990384615 17.7554086538462  Z " fill-rule="nonzero" fill="#000000" stroke="none" transform="matrix(1 0 0 1 200 691 )" />
  </g>
</svg>